<svg height="1024" viewBox="0 0 1024 1024" width="1024" xmlns="http://www.w3.org/2000/svg" xmlns:xlink="http://www.w3.org/1999/xlink"><linearGradient id="a" x1="50%" x2="50%" y1="58.853906%" y2="158.853906%"><stop offset="0" stop-color="#fefefe"/><stop offset=".525895979" stop-color="#fefefe"/><stop offset="1" stop-color="#fefefe"/></linearGradient><g fill="none" fill-rule="evenodd"><path d="m256.024652 0c-141.160035 0-256.024652 114.860869-256.024652 255.97544v512.147482c0 141.061735 114.86093 255.877138 256.024652 255.877138h512.098209c141.061734 0 255.877139-114.812946 255.877139-255.926288v-512.098332c0-141.110885-114.812947-255.97544-255.92629-255.97544z" fill="#2f3a3e"/><path d="m743.655125 433.213762h-1.958661c0-126.318604-102.895158-229.213762-229.213762-229.213762-126.318605 0-229.213763 102.895158-229.213763 229.213762h-1.958661c-31.898085 0-57.310278 26.047759-57.310278 57.310278v274.165682c0 31.898085 26.047758 57.310278 57.310278 57.310278h462.347712c31.898085 0 57.310279-26.047758 57.310279-57.310278v-274.165682c.635936-31.898085-25.411542-57.310278-57.310279-57.310278zm-182.998527 280.013404c1.297309 4.553278 0 9.767909-2.594617 13.685492-3.25597 3.917322-7.809118 5.850587-12.362266 5.850587h-66.44132c-5.214631 0-9.106296-1.958661-12.362266-5.850587-3.25597-3.917323-3.917323-9.106297-2.594617-13.685492l21.469213-82.695122c-18.23864-9.767909-30.600906-28.642115-30.600906-50.798338 0-31.898085 26.047758-57.310278 57.310278-57.310278s57.310278 26.047758 57.310278 57.310278c0 22.130175-12.362266 41.030429-30.600907 50.798338zm102.895158-280.013404h-302.140974c0-83.359339 67.711148-151.070487 151.070487-151.070487s151.070487 67.711148 151.070487 151.070487z" fill="url(#a)" fill-rule="nonzero"/></g></svg>